<?xml version="1.0" encoding="UTF-8"?>
<svg id="Layer_2" data-name="Layer 2" xmlns="http://www.w3.org/2000/svg" viewBox="0 0 79.67 79.67">
  <defs>
    <style>
      .cls-1 {
        fill: none;
        stroke: #000;
        stroke-miterlimit: 10;
        stroke-width: 3px;
      }
    </style>
  </defs>
  <g id="Layer_1-2" data-name="Layer 1">
    <g>
      <circle class="cls-1" cx="39.83" cy="39.83" r="38.33"/>
      <path d="M57.06,28.46s-.51-4.81-.53-4.99c-.68-1.11-2.73-1.47-3.85-1.58,0,0-.02,0-.03,0,0,0-.02,0-.03,0-.42-.04-.7-.05-.7-.05-.77.36-1.02,1.45-.94,2.23l.49,4.66s-.01,0-.01.01h0c-.08.06-.16.13-.25.21-.8.73-1.05,1.72-1.3,2.68-.09.34-.18.7-.3,1.03-.39,1.11-.87,2.27-1.4,3.34-.11.23-.22.44-.32.65-.62,1.11-1.34,2.14-2.13,3.11-.03.04-.07.08-.1.12-.04.04-.07.08-.11.13-1.19,1.4-2.55,2.64-4.09,3.71-3.53,2.46-7.88,3.79-12.37,3.79-.44,0-.87-.01-1.31-.04-.31-.02-.63-.04-.94-.07-.34-.03-.77-.08-1.22-.1-.25-.01-.52-.02-.8-.02-1.15,0-2.47.18-3.3,1.01-.34.34-.58.77-.7,1.29-.49,2.01.65,3.22,1.95,4.23,1.18.91,2.44,1.65,3.76,2.2,2.52,1.05,5.17,1.66,7.89,1.82.46.03.92.04,1.38.04,5.33,0,10.45-1.78,14.55-5.09,6.51-5.26,9.71-13.64,8.34-21.88-.16-.98-.74-1.85-1.6-2.4h0Z"/>
    </g>
  </g>
</svg>